<svg id="Layer_1" data-name="Layer 1" xmlns="http://www.w3.org/2000/svg" viewBox="0 0 309 316"><defs><style>.cls-1{fill:#90a9cd;}</style></defs><title>gamepiece_o_blue</title><path class="cls-1" d="M309,157.79c-.59-30-7.28-57.25-19.9-80.93a141.87,141.87,0,0,0-54-56.52C212.07,6.84,185,0,154.5,0S96.87,6.84,73.74,20.33a140.31,140.31,0,0,0-54,56.34C7.2,100.22.58,127.52,0,157.79v.42c.58,30.27,7.2,57.57,19.68,81.11a140.3,140.3,0,0,0,54.06,56.35C96.86,309.16,124,316,154.5,316s57.58-6.84,80.58-20.34a141.8,141.8,0,0,0,54-56.52c12.62-23.68,19.31-50.91,19.9-80.93v-.42Zm-70.5,52.72a85.42,85.42,0,0,1-32.77,35.74c-14.3,8.74-31.54,13.17-51.23,13.17-20,0-37.25-4.42-51.4-13.14a85.82,85.82,0,0,1-32.6-35.77C62.84,195.18,59,177.51,59,158s3.88-37.17,11.54-52.51a87,87,0,0,1,32.6-35.77c14.15-8.72,31.44-13.14,51.4-13.14,19.69,0,36.93,4.43,51.23,13.17a85.42,85.42,0,0,1,32.77,35.74C246.16,120.84,250,138.5,250,158S246.16,195.17,238.5,210.51Z"/></svg>