<?xml version="1.0" encoding="utf-8"?>
<!-- Generator: Adobe Illustrator 23.0.1, SVG Export Plug-In . SVG Version: 6.00 Build 0)  -->
<svg version="1.1" id="Layer_1" xmlns="http://www.w3.org/2000/svg" xmlns:xlink="http://www.w3.org/1999/xlink" x="0px" y="0px"
	 viewBox="0 0 1550 375" style="enable-background:new 0 0 1550 375;" xml:space="preserve">
<style type="text/css">
	.st0{fill:#EEF0E6;}
	.st1{fill:#FFFFFF;}
	.st2{fill:#FFB6B9;}
	.st3{fill:#90A9CD;}
</style>
<g>
	<g>
		<g>
			<g>
				<path class="st0" d="M536.56,375c-29.17,0-52.46-7.68-69.2-22.83c-12.21-11.05-26.77-31.69-26.77-67.33v-94.82
					c-9.46-1.16-18.18-5.38-25-12.19c-8.12-8.09-12.59-18.9-12.59-30.44c0-12.67,5.52-24.58,15.24-33.06l55.74-54.53
					c11.53-11.44,23.58-13.85,31.68-13.85c12.07,0,23.23,4.91,31.42,13.84c7.08,7.75,11.11,17.6,11.49,27.94h12.22
					c13.91,0,26.84,5.27,36.42,14.83c9.61,9.63,14.87,22.57,14.87,36.48c0,13.57-4.95,25.92-14.31,35.7
					c-9.63,10.06-22.76,15.61-36.98,15.61h-12.19v79.83l0.44-0.11c1.35-0.33,2.79-0.68,4.31-1.02l0.15-0.03
					c3.77-0.83,7.8-1.23,12.29-1.23c12.98,0,24.94,4.86,34.59,14.05c9.97,9.53,15.45,22.31,15.45,36
					c0,19.59-10.36,36.23-28.41,45.66l-1.53,0.75C570.45,371.39,553.86,375,536.56,375z M548.72,283.93L548.72,283.93L548.72,283.93
					z"/>
			</g>
			<g>
				<path class="st0" d="M646.77,375c-17.48,0-34.03-3.69-49.18-10.97c-16.37-7.86-29.57-19.53-39.22-34.68
					c-9.73-15.26-14.67-32.77-14.67-52.03c0-31.65,13.27-58.37,38.39-77.27c1.87-1.41,3.8-2.76,5.77-4.05
					c-5.56-2.5-10.69-6.03-15.15-10.5c-9.54-9.52-14.82-22.33-14.82-36.01c0-21.59,12.04-39.57,32.21-48.12
					c27.89-11.82,56.79-17.81,85.89-17.81c25.44,0,47.79,5.57,66.42,16.54l0.02,0.01c19.02,11.22,33.38,26.24,42.69,44.64
					c8.74,17.29,13.16,36.17,13.16,56.12V319.1c0,14.73-5.81,28.44-16.37,38.6c-10.34,9.95-23.42,15.21-37.84,15.21
					c-12.35,0-24.02-4.06-33.46-11.54C691.54,370.43,670.2,375,646.77,375z M648.64,270.13L648.64,270.13L648.64,270.13z"/>
			</g>
			<g>
				<path class="st0" d="M890.53,375c-25.69,0-49.85-5.85-71.81-17.38c-22.6-11.85-40.89-29.1-54.35-51.24
					c-13.49-22.18-20.34-48.12-20.34-77.1c0-28.98,6.85-54.92,20.35-77.11c13.45-22.12,31.74-39.36,54.35-51.24
					c21.97-11.53,46.13-17.38,71.8-17.38c18.64,0,35.39,2.56,49.79,7.61c13.2,4.63,25.67,10.66,37.07,17.91l0.3,0.19
					c15.42,10.04,24.26,26.06,24.26,43.97c0,13.03-4.85,25.19-14.03,35.18c-9.81,10.67-22.89,16.54-36.84,16.54
					c-8.81,0-17.38-2.2-25.5-6.54c-9.08-4.66-14.76-6.85-17.94-7.86c-1.71-0.55-5.8-1.47-13.78-1.47c-21.32,0-28.98,7.75-31.5,10.29
					c-4.44,4.49-10.34,12.46-10.34,29.89s5.9,25.4,10.34,29.88c2.52,2.55,10.19,10.3,31.51,10.3c7.98,0,12.07-0.92,13.79-1.48
					c3.18-1.02,8.88-3.21,17.91-7.86c8.12-4.34,16.7-6.54,25.51-6.54c13.93,0,27,5.86,36.81,16.51
					c9.22,10.05,14.06,22.21,14.06,35.21c0,17.93-8.85,33.96-24.29,43.99l-0.27,0.17c-11.4,7.26-23.87,13.28-37.07,17.91
					C925.91,372.44,909.16,375,890.53,375z"/>
			</g>
		</g>
		<g>
			<path class="st0" d="M351.75,375c-25.69,0-49.85-5.85-71.81-17.38c-9.29-4.88-17.86-10.66-25.66-17.32
				c-2.77,6.47-6.84,12.37-12.07,17.41c-10.34,9.95-23.43,15.21-37.84,15.21c-9.31,0-18.23-2.31-26.1-6.64
				c-14.12,5.8-29.14,8.73-44.72,8.73c-29.17,0-52.46-7.68-69.2-22.83c-12.21-11.05-26.77-31.69-26.77-67.33v-94.82
				c-9.48-1.16-18.22-5.4-25.04-12.23C4.46,169.7,0,158.91,0,147.39c0-12.67,5.52-24.58,15.24-33.06L70.98,59.8
				c11.53-11.44,23.58-13.85,31.68-13.85c12.07,0,23.23,4.91,31.42,13.84c7.08,7.75,11.11,17.6,11.49,27.94h10.14
				c-5.56-8.81-8.45-18.91-8.45-29.74v-1.67c0-15.23,5.71-28.99,16.52-39.8C174.57,5.71,188.32,0,203.54,0h2.51
				c15.22,0,28.98,5.71,39.78,16.52c10.81,10.81,16.52,24.57,16.52,39.8v1.67c0,15.23-5.71,28.99-16.52,39.8
				c-1.09,1.09-2.21,2.13-3.36,3.11c0.14,0.13,0.27,0.27,0.41,0.4c4.98,4.99,8.81,10.68,11.45,16.92
				c7.79-6.64,16.33-12.42,25.61-17.29c21.97-11.53,46.13-17.38,71.81-17.38c18.64,0,35.39,2.56,49.79,7.61
				c13.2,4.63,25.67,10.66,37.07,17.91l0.3,0.19c15.42,10.04,24.26,26.06,24.26,43.97c0,13.03-4.85,25.19-14.04,35.18
				c-9.8,10.67-22.88,16.54-36.83,16.54c-8.81,0-17.38-2.2-25.49-6.54c-9.09-4.66-14.77-6.85-17.94-7.87
				c-1.72-0.55-5.81-1.47-13.78-1.47c-21.32,0-28.98,7.75-31.5,10.29c-4.44,4.49-10.34,12.46-10.34,29.89s5.9,25.4,10.34,29.88
				c2.52,2.55,10.19,10.3,31.51,10.3c7.98,0,12.07-0.92,13.79-1.48c3.18-1.02,8.87-3.21,17.91-7.86c8.12-4.34,16.69-6.54,25.51-6.54
				c13.93,0,27.01,5.87,36.81,16.52c9.21,10.04,14.06,22.2,14.06,35.21c0,17.92-8.85,33.96-24.29,43.98l-0.27,0.18
				c-11.4,7.26-23.87,13.28-37.07,17.91C387.14,372.44,370.39,375,351.75,375z M215.74,307.69l0.01,0.01
				C215.75,307.69,215.75,307.69,215.74,307.69z M145.59,190.35v79.83l0.44-0.11c1.35-0.33,2.79-0.68,4.31-1.02l0.15-0.03
				c0.03-0.01,0.06-0.01,0.09-0.02v-78.65H145.59z M192.38,57.16c0.23,3.21,1.76,6.69,3.96,8.88c2.1,2.1,5.37,3.59,8.46,3.92
				c3.09-0.33,6.36-1.82,8.46-3.92c2.19-2.19,3.72-5.67,3.96-8.88c-0.23-3.21-1.76-6.69-3.96-8.88l0,0c-2.1-2.1-5.37-3.59-8.46-3.92
				c-3.09,0.33-6.36,1.82-8.46,3.92C194.14,50.47,192.61,53.95,192.38,57.16z"/>
		</g>
		<g>
			<g>
				<path class="st0" d="M1062.57,375c-29.17,0-52.46-7.68-69.2-22.83c-12.21-11.05-26.77-31.69-26.77-67.33v-94.82
					c-9.46-1.16-18.19-5.39-25.01-12.2c-8.11-8.09-12.58-18.9-12.58-30.43c0-12.68,5.52-24.59,15.24-33.06l55.74-54.53
					c11.53-11.44,23.58-13.84,31.68-13.84c12.07,0,23.22,4.91,31.42,13.84c7.09,7.76,11.11,17.61,11.49,27.94h12.22
					c13.91,0,26.84,5.27,36.42,14.83c9.61,9.63,14.87,22.57,14.87,36.48c0,13.57-4.95,25.92-14.31,35.7
					c-9.63,10.06-22.76,15.61-36.98,15.61h-12.19v79.83l0.45-0.11c1.34-0.33,2.77-0.67,4.29-1.01l0.2-0.04
					c3.77-0.82,7.78-1.22,12.26-1.22c12.98,0,24.94,4.86,34.59,14.05c9.97,9.53,15.45,22.31,15.45,36
					c0,19.59-10.36,36.24-28.41,45.66l-1.52,0.75C1096.46,371.39,1079.86,375,1062.57,375z M1074.73,283.93
					C1074.73,283.93,1074.73,283.93,1074.73,283.93S1074.73,283.93,1074.73,283.93z"/>
			</g>
			<g>
				<path class="st0" d="M1202.13,375c-27.49,0-52.28-6.18-73.69-18.37c-22.02-12.53-39.22-30.47-51.11-53.32
					c-11.35-21.81-17.11-46.72-17.11-74.03c0-27.3,5.76-52.21,17.11-74.03c11.9-22.86,29.1-40.8,51.12-53.33
					c21.4-12.19,46.2-18.37,73.68-18.37c27.2,0,51.85,6.18,73.27,18.37l0,0c21.94,12.49,39.17,30.36,51.21,53.11
					c11.57,21.89,17.43,46.86,17.43,74.24c0,27.39-5.86,52.36-17.43,74.23c-12.03,22.75-29.26,40.63-51.21,53.12
					C1253.98,368.82,1229.33,375,1202.13,375z M1202.13,188.26c-6.31,0-12.1,1.35-17.72,4.12c-4.19,2.07-7.78,5.72-10.96,11.14
					c-3.47,5.93-5.23,14.46-5.23,25.34c0,11.01,1.81,19.91,5.23,25.76c3.25,5.55,6.94,9.31,11.29,11.52
					c5.53,2.8,11.21,4.16,17.39,4.16c5.9,0,11.45-1.36,16.96-4.15c4.46-2.26,8.27-6.11,11.67-11.79l0,0
					c3.45-5.78,5.28-14.6,5.28-25.49c0-10.77-1.78-19.21-5.28-25.08c-3.31-5.54-7.03-9.28-11.34-11.41
					C1213.82,189.6,1208.16,188.26,1202.13,188.26z"/>
			</g>
			<g>
				<path class="st0" d="M1423.96,375c-43.54,0-78.69-13.28-104.49-39.48c-25.66-26.04-38.67-61.79-38.67-106.25
					c0-24.51,4.63-47.61,13.75-68.66c9.86-22.76,25.25-41.43,45.73-55.48c20.91-14.33,46.25-21.59,75.33-21.59
					c27.29,0,51.62,6.7,72.3,19.92c20.47,13.08,36.24,30.78,46.87,52.6c10.11,20.78,15.23,43.58,15.23,67.77
					c0,14.42-5.18,27.44-14.99,37.64l0,0c-2.61,2.71-5.44,5.1-8.47,7.15c10.57,9.71,16.37,23.02,16.37,37.51
					c0,18.69-10.34,35.38-28.37,45.78l-0.29,0.17c-13.16,7.43-26.49,13.13-39.63,16.93C1460.71,373.05,1444.15,375,1423.96,375z"/>
			</g>
		</g>
	</g>
	<g>
		<g>
			<g>
				<path class="st1" d="M565.79,302.8c-1.95,0-3.55,0.14-4.8,0.42c-1.25,0.28-2.44,0.56-3.55,0.84c-5.57,1.67-11.14,2.51-16.7,2.51
					c-7.8,0-14.27-1.46-19.42-4.39c-5.15-2.92-7.73-9.82-7.73-20.68V155.33h47.19c4.73,0,8.63-1.6,11.69-4.8
					c3.06-3.2,4.59-7.03,4.59-11.49c0-4.73-1.53-8.63-4.59-11.7c-3.07-3.06-6.96-4.6-11.69-4.6h-47.19V89.32
					c0-2.23-0.77-4.18-2.3-5.85c-1.53-1.67-3.41-2.51-5.64-2.51c-2.23,0-4.59,1.25-7.1,3.76l-56.8,55.56
					c-2.51,1.95-3.76,4.32-3.76,7.1c0,2.23,0.76,4.11,2.3,5.64c1.53,1.53,3.41,2.3,5.64,2.3h29.65v129.51
					c0,36.76,20.32,55.15,60.97,55.15c12.25,0,23.8-2.51,34.66-7.52c6.4-3.34,9.61-8.21,9.61-14.62c0-4.18-1.53-7.73-4.59-10.65
					C573.17,304.27,569.69,302.8,565.79,302.8z"/>
			</g>
			<g>
				<path class="st1" d="M724.65,130.27c-13.23-7.79-29.44-11.7-48.65-11.7c-24.5,0-48.59,5.01-72.25,15.04
					c-7.24,3.07-10.86,8.36-10.86,15.88c0,4.46,1.53,8.22,4.59,11.28c3.06,3.07,6.68,4.6,10.86,4.6c1.39,0,3.2-0.27,5.43-0.84
					c10.02-3.34,19.14-5.85,27.35-7.52c8.21-1.67,17.6-2.51,28.19-2.51c19.21,0,33.34,4.04,42.39,12.12
					c9.04,8.08,13.57,21.31,13.57,39.69v3.34h-50.53c-31.46,0-55.33,6.13-71.62,18.38c-16.29,12.26-24.43,28.69-24.43,49.3
					c0,12.53,3.06,23.6,9.19,33.21c6.12,9.61,14.41,16.92,24.85,21.93c10.44,5.01,21.78,7.52,34.04,7.52
					c31.74,0,57.9-10.58,78.51-31.75v10.86c0,5.29,1.81,9.75,5.43,13.37c3.61,3.62,8.07,5.43,13.36,5.43
					c5.29,0,9.81-1.81,13.57-5.43c3.76-3.62,5.64-8.07,5.64-13.37V200.87c0-14.48-3.13-27.92-9.4-40.31
					C747.62,148.16,737.87,138.07,724.65,130.27z M725.28,275.23c-7.8,8.92-17.4,16.36-28.82,22.35
					c-11.42,5.99-23.25,8.98-35.5,8.98c-15.87,0-27.22-3.06-34.04-9.19c-6.83-6.12-10.23-14.2-10.23-24.23c0-22,21.02-33,63.06-33
					h45.52V275.23z"/>
			</g>
			<g>
				<path class="st1" d="M951.08,288.6c-3.07,0-6.13,0.84-9.19,2.51c-9.19,4.74-17.06,8.15-23.6,10.24
					c-6.54,2.09-14.69,3.13-24.43,3.13c-23.95,0-42.74-6.89-56.38-20.68c-13.64-13.79-20.46-31.96-20.46-54.52
					s6.82-40.73,20.46-54.52c13.64-13.79,32.43-20.68,56.38-20.68c9.74,0,17.89,1.04,24.43,3.13c6.54,2.09,14.41,5.5,23.6,10.24
					c3.06,1.67,6.12,2.51,9.19,2.51c4.18,0,7.86-1.74,11.07-5.22c3.2-3.48,4.8-7.31,4.8-11.49c0-6.12-2.79-11-8.35-14.62
					c-9.19-5.85-19.15-10.65-29.86-14.41c-10.72-3.76-23.46-5.64-38.21-5.64c-20.05,0-38.56,4.46-55.54,13.37
					c-16.99,8.92-30.56,21.72-40.72,38.43c-10.17,16.71-15.24,36.35-15.24,58.91s5.08,42.2,15.24,58.91
					c10.16,16.71,23.73,29.52,40.72,38.43c16.98,8.92,35.5,13.37,55.54,13.37c14.75,0,27.49-1.88,38.21-5.64
					c10.71-3.76,20.67-8.56,29.86-14.41c5.57-3.62,8.35-8.49,8.35-14.62c0-4.18-1.6-8-4.8-11.49
					C958.94,290.34,955.26,288.6,951.08,288.6z"/>
			</g>
		</g>
		<g>
			<path class="st2" d="M72.59,284.84V155.33H42.93c-2.23,0-4.11-0.76-5.64-2.3c-1.53-1.53-2.3-3.41-2.3-5.64
				c0-2.78,1.25-5.15,3.76-7.1l56.8-55.56c2.51-2.51,4.87-3.76,7.1-3.76c2.23,0,4.1,0.84,5.64,2.51c1.53,1.67,2.3,3.62,2.3,5.85
				v33.42h47.19c4.73,0,8.63,1.53,11.69,4.6c3.06,3.07,4.59,6.97,4.59,11.7c0,4.46-1.53,8.29-4.59,11.49
				c-3.07,3.21-6.96,4.8-11.69,4.8h-47.19V281.5c0,10.86,2.57,17.76,7.73,20.68c5.15,2.92,11.62,4.39,19.42,4.39
				c5.57,0,11.13-0.84,16.7-2.51c1.11-0.27,2.3-0.55,3.55-0.84c1.25-0.27,2.85-0.42,4.8-0.42c3.9,0,7.37,1.46,10.44,4.39
				c3.06,2.92,4.59,6.48,4.59,10.65c0,6.41-3.2,11.28-9.61,14.62c-10.86,5.01-22.41,7.52-34.66,7.52
				C92.9,339.99,72.59,321.6,72.59,284.84z M188.51,73.03c-4.18-4.18-6.26-9.19-6.26-15.04v-1.67c0-5.85,2.09-10.86,6.26-15.04
				c4.18-4.18,9.19-6.27,15.03-6.27h2.51c5.85,0,10.86,2.09,15.03,6.27c4.18,4.18,6.26,9.19,6.26,15.04v1.67
				c0,5.85-2.09,10.86-6.26,15.04c-4.18,4.18-9.19,6.27-15.03,6.27h-2.51C197.7,79.3,192.69,77.21,188.51,73.03z M191.02,332.47
				c-3.62-3.62-5.43-8.07-5.43-13.37V139.87c0-5.29,1.81-9.82,5.43-13.58c3.61-3.76,8.07-5.64,13.36-5.64
				c5.57,0,10.16,1.81,13.78,5.43c3.62,3.62,5.43,8.22,5.43,13.79V319.1c0,5.29-1.88,9.75-5.64,13.37
				c-3.76,3.62-8.29,5.43-13.57,5.43C199.09,337.9,194.63,336.08,191.02,332.47z M296.21,326.62
				c-16.99-8.91-30.56-21.72-40.72-38.43c-10.17-16.71-15.24-36.35-15.24-58.91s5.08-42.19,15.24-58.91
				c10.16-16.71,23.73-29.52,40.72-38.43c16.98-8.91,35.5-13.37,55.54-13.37c14.75,0,27.49,1.88,38.21,5.64
				c10.71,3.76,20.67,8.56,29.86,14.41c5.56,3.62,8.35,8.5,8.35,14.62c0,4.18-1.61,8.01-4.8,11.49c-3.2,3.49-6.89,5.22-11.07,5.22
				c-3.07,0-6.13-0.84-9.19-2.51c-9.19-4.73-17.06-8.15-23.6-10.24c-6.55-2.09-14.69-3.13-24.43-3.13
				c-23.95,0-42.74,6.89-56.38,20.68c-13.64,13.79-20.46,31.96-20.46,54.52s6.82,40.73,20.46,54.52
				c13.64,13.79,32.43,20.68,56.38,20.68c9.74,0,17.89-1.04,24.43-3.13c6.54-2.09,14.41-5.5,23.6-10.24
				c3.06-1.67,6.12-2.51,9.19-2.51c4.18,0,7.86,1.74,11.07,5.22c3.2,3.49,4.8,7.31,4.8,11.49c0,6.13-2.79,11.01-8.35,14.62
				c-9.19,5.85-19.15,10.65-29.86,14.41c-10.72,3.76-23.46,5.64-38.21,5.64C331.71,339.99,313.19,335.53,296.21,326.62z"/>
		</g>
		<g>
			<g>
				<path class="st3" d="M1091.8,302.8c-1.95,0-3.55,0.14-4.8,0.42c-1.25,0.28-2.44,0.56-3.55,0.84c-5.57,1.67-11.14,2.51-16.7,2.51
					c-7.8,0-14.27-1.46-19.42-4.39c-5.15-2.92-7.73-9.82-7.73-20.68V155.33h47.19c4.73,0,8.63-1.6,11.69-4.8
					c3.06-3.2,4.59-7.03,4.59-11.49c0-4.73-1.53-8.63-4.59-11.7c-3.07-3.06-6.96-4.6-11.69-4.6h-47.19V89.32
					c0-2.23-0.77-4.18-2.3-5.85c-1.53-1.67-3.41-2.51-5.64-2.51c-2.23,0-4.59,1.25-7.1,3.76l-56.8,55.56
					c-2.51,1.95-3.76,4.32-3.76,7.1c0,2.23,0.76,4.11,2.3,5.64c1.53,1.53,3.41,2.3,5.64,2.3h29.65v129.51
					c0,36.76,20.32,55.15,60.97,55.15c12.25,0,23.8-2.51,34.66-7.52c6.4-3.34,9.61-8.21,9.61-14.62c0-4.18-1.53-7.73-4.59-10.65
					C1099.18,304.27,1095.7,302.8,1091.8,302.8z"/>
			</g>
			<g>
				<path class="st3" d="M1258.09,132.35c-16.15-9.19-34.81-13.79-55.96-13.79c-21.44,0-40.23,4.6-56.38,13.79
					c-16.15,9.19-28.61,22.21-37.38,39.06c-8.77,16.85-13.15,36.14-13.15,57.86s4.38,41.01,13.15,57.86
					c8.77,16.85,21.23,29.87,37.38,39.06c16.14,9.19,34.94,13.79,56.38,13.79c21.15,0,39.81-4.6,55.96-13.79
					c16.14-9.19,28.67-22.21,37.58-39.06c8.91-16.85,13.36-36.14,13.36-57.86s-4.46-41.01-13.36-57.86
					C1286.76,154.57,1274.23,141.55,1258.09,132.35z M1260.81,272.31c-6.83,11.42-15.45,19.78-25.89,25.07
					c-10.44,5.29-21.37,7.94-32.78,7.94c-11.69,0-22.76-2.64-33.2-7.94c-10.44-5.29-19-13.64-25.68-25.07
					c-6.68-11.42-10.02-25.9-10.02-43.45c0-17.27,3.34-31.61,10.02-43.03c6.68-11.42,15.24-19.7,25.68-24.86
					c10.44-5.15,21.51-7.73,33.2-7.73c11.41,0,22.34,2.58,32.78,7.73c10.44,5.16,19.07,13.44,25.89,24.86
					c6.82,11.42,10.23,25.76,10.23,43.03C1271.04,246.41,1267.62,260.89,1260.81,272.31z"/>
			</g>
			<g>
				<path class="st3" d="M1509.78,237.21c3.48-3.62,5.22-8.07,5.22-13.37c0-18.94-3.9-36.41-11.69-52.43
					c-7.8-16.01-19.21-28.83-34.24-38.43c-15.04-9.61-32.86-14.41-53.46-14.41c-22,0-40.51,5.16-55.54,15.46
					c-15.04,10.31-26.17,23.81-33.41,40.52c-7.24,16.71-10.86,34.96-10.86,54.73c0,35.09,9.53,62.32,28.61,81.67
					c19.07,19.36,45.58,29.03,79.56,29.03c16.7,0,30.34-1.53,40.93-4.6c10.58-3.06,21.3-7.66,32.15-13.79
					c7.24-4.18,10.86-9.33,10.86-15.46c0-4.73-1.67-8.63-5.01-11.7c-3.34-3.06-7.24-4.6-11.69-4.6c-2.79,0-5.29,0.56-7.52,1.67
					c-8.35,4.18-16.91,7.38-25.68,9.61c-8.77,2.23-19,3.34-30.7,3.34c-22,0-39.12-5.43-51.37-16.29
					c-12.25-10.86-19.49-26.04-21.72-45.54h141.57C1501.64,242.65,1506.3,240.84,1509.78,237.21z M1354.22,211.73
					c0.84-13.64,4.31-25.07,10.44-34.26c6.12-9.19,13.78-15.94,22.97-20.26c9.19-4.31,18.51-6.48,27.98-6.48
					c9.46,0,18.79,2.16,27.98,6.48c9.19,4.32,16.91,11.07,23.18,20.26c6.26,9.19,9.81,20.61,10.65,34.26H1354.22z"/>
			</g>
		</g>
	</g>
</g>
</svg>
