<?xml version="1.0" encoding="utf-8"?>
<!-- Generator: Adobe Illustrator 23.0.1, SVG Export Plug-In . SVG Version: 6.00 Build 0)  -->
<svg version="1.1" id="Layer_1" xmlns="http://www.w3.org/2000/svg" xmlns:xlink="http://www.w3.org/1999/xlink" x="0px" y="0px"
	 viewBox="0 0 872 565" style="enable-background:new 0 0 872 565;" xml:space="preserve">
<style type="text/css">
	.st0{fill:#EEF0E6;}
	.st1{fill:#FFB6B9;}
</style>
<g>
	<g>
		<g>
			<path class="st0" d="M83.85,307.11c-14.19,0-27.63-2.99-39.94-8.9h0c-13.34-6.4-24.09-15.89-31.96-28.22
				C4.03,257.57,0,243.32,0,227.67c0-25.75,10.81-47.49,31.27-62.86c0.8-0.6,1.6-1.18,2.42-1.76c-3.66-1.95-7.05-4.45-10.07-7.48
				c-7.91-7.89-12.29-18.5-12.29-29.82c0-17.86,9.97-32.75,26.68-39.81c22.46-9.5,45.73-14.32,69.18-14.32
				c20.6,0,38.7,4.51,53.82,13.41c15.46,9.11,27.13,21.3,34.69,36.24c7.09,14.01,10.68,29.3,10.68,45.45v94.26
				c0,12.18-4.82,23.52-13.56,31.91c-8.55,8.22-19.37,12.56-31.29,12.56c-9.88,0-19.24-3.14-26.91-8.94
				C119.42,303.56,102.45,307.11,83.85,307.11z"/>
		</g>
		<g>
			<path class="st0" d="M290.72,307.11c-16.38,0-31.67-3.44-45.74-10.28c-7.68,5.65-16.77,8.61-26.61,8.61
				c-11.97,0-23.17-4.61-31.54-12.97c-8.36-8.33-12.98-19.53-12.98-31.51V44.81c0-11.92,4.35-22.74,12.59-31.28
				C194.84,4.81,206.18,0,218.37,0c12.34,0,23.36,4.48,31.85,12.95c8.52,8.53,13,19.53,13,31.86v30.3c8.78-2.33,17.95-3.5,27.49-3.5
				c18.88,0,36.96,4.82,53.74,14.33c16.96,9.61,30.77,23.64,41.07,41.68c10.21,17.88,15.38,38.65,15.38,61.74
				c0,23.09-5.17,43.86-15.38,61.74c-10.29,18.04-24.11,32.06-41.07,41.68C327.68,302.29,309.6,307.11,290.72,307.11z
				 M263.22,211.47c2.39,1.77,4.93,3.34,7.64,4.71c4.86,2.46,9.94,3.65,15.52,3.65c10.7,0,15.43-3.5,18.35-6.56l0,0
				c4.51-4.71,6.8-12.75,6.8-23.9c0-11.15-2.29-19.19-6.81-23.91c-2.92-3.05-7.66-6.56-18.35-6.56c-5.57,0-10.65,1.2-15.52,3.66
				c-2.71,1.37-5.25,2.94-7.64,4.71V211.47z"/>
		</g>
		<g>
			<path class="st0" d="M465.47,307.11c-22.22,0-42.27-5-59.6-14.85l0,0c-17.85-10.15-31.79-24.67-41.42-43.16
				c-9.18-17.61-13.84-37.72-13.84-59.75c0-22.02,4.65-42.12,13.84-59.75c9.64-18.49,23.58-33.01,41.42-43.16
				c17.33-9.85,37.38-14.85,59.6-14.85c21.99,0,41.93,5,59.27,14.85c17.79,10.11,31.75,24.57,41.5,42.98
				c9.36,17.69,14.1,37.84,14.1,59.93c0,22.09-4.74,42.25-14.09,59.91c-9.75,18.41-23.71,32.87-41.5,42.99
				C507.4,302.12,487.46,307.11,465.47,307.11z M465.47,158.23c-4.79,0-9.19,1.02-13.45,3.12c-3.06,1.51-5.71,4.22-8.08,8.27
				c-2.59,4.42-3.96,11.13-3.96,19.41c0,8.5,1.37,15.32,3.96,19.74c2.43,4.16,5.17,6.96,8.36,8.57c4.19,2.12,8.49,3.15,13.17,3.15
				c4.46,0,8.65-1.03,12.83-3.14l0.01-0.01c3.28-1.66,6.12-4.54,8.67-8.81c2.61-4.36,3.99-11.11,3.99-19.51
				c0-8.3-1.34-14.76-3.99-19.19c-2.49-4.15-5.24-6.94-8.4-8.5C474.33,159.25,470.04,158.23,465.47,158.23z"/>
		</g>
		<g>
			<path class="st0" d="M626.89,307.11c-17.91,0-33.98-4.48-47.78-13.33l0,0c-13.65-8.75-24.2-20.78-31.36-35.76
				c-6.67-13.93-10.05-29.3-10.05-45.68v-94.59c0-12.16,4.81-23.49,13.53-31.89c8.58-8.24,19.4-12.58,31.31-12.58
				c11.95,0,23.14,4.6,31.52,12.94c8.4,8.4,13,19.59,13,31.53v91.26c0,6.53,1.05,9.53,1.49,10.49c0.8,0.27,2.63,0.66,5.67,0.66
				c5.34,0,9.67-1.21,13.61-3.8c3.9-2.56,7.76-5.82,11.55-9.72v-88.89c0-12.17,4.81-23.49,13.54-31.9
				c8.57-8.23,19.39-12.58,31.31-12.58c11.95,0,23.15,4.6,31.52,12.95c8.39,8.4,13,19.58,13,31.53v142.89
				c0,11.91-4.35,22.72-12.58,31.27c-8.42,8.74-19.76,13.54-31.93,13.54c-10.54,0-20.52-3.61-28.54-10.26
				C661.55,303.1,645.14,307.11,626.89,307.11z"/>
		</g>
		<g>
			<path class="st0" d="M807.15,307.11c-23.69,0-42.63-6.26-56.3-18.61c-9.98-9.02-21.89-25.86-21.89-54.85v-74.23
				c-7.38-1.19-14.16-4.64-19.53-10c-6.76-6.75-10.48-15.75-10.48-25.35c0-10.55,4.59-20.46,12.67-27.52l44.46-43.44
				c9.58-9.49,19.63-11.49,26.39-11.49c10.08,0,19.4,4.1,26.24,11.54c5.57,6.09,8.87,13.72,9.5,21.77h8.27
				c11.52,0,22.24,4.36,30.18,12.28c7.97,7.97,12.33,18.68,12.33,30.2c0,11.07-4.21,21.57-11.86,29.55
				c-7.98,8.33-18.87,12.92-30.65,12.92h-8.16v60.08c0.6-0.14,1.22-0.28,1.85-0.43l0.19-0.04c3.12-0.68,6.42-1.01,10.11-1.01
				c10.62,0,20.81,4.13,28.69,11.64c8.28,7.9,12.82,18.49,12.82,29.84c0,16.23-8.58,30.01-23.53,37.8l-1.28,0.63
				C834.65,304.18,821.18,307.11,807.15,307.11z M818.41,232.68C818.41,232.68,818.41,232.68,818.41,232.68
				C818.41,232.68,818.41,232.68,818.41,232.68z M808.42,221.34L808.42,221.34L808.42,221.34z"/>
		</g>
		<g>
			<path class="st0" d="M83.85,490.06c-14.19,0-27.63-2.99-39.94-8.9h0c-13.34-6.4-24.09-15.89-31.96-28.22
				C4.03,440.51,0,426.27,0,410.61c0-25.75,10.81-47.49,31.27-62.86c0.8-0.6,1.6-1.18,2.42-1.76c-3.66-1.95-7.05-4.45-10.07-7.48
				c-7.91-7.89-12.29-18.5-12.29-29.82c0-17.86,9.97-32.75,26.68-39.81c22.46-9.5,45.73-14.32,69.18-14.32
				c20.6,0,38.7,4.51,53.82,13.41c15.46,9.11,27.13,21.3,34.69,36.24c7.09,14.01,10.68,29.3,10.68,45.45v94.26
				c0,12.18-4.81,23.51-13.55,31.91c-8.56,8.22-19.38,12.57-31.3,12.57c-9.88,0-19.24-3.14-26.91-8.94
				C119.42,486.51,102.45,490.06,83.85,490.06z"/>
		</g>
		<g>
			<path class="st0" d="M218.37,565c-12.19,0-23.53-4.81-31.94-13.54c-8.23-8.54-12.58-19.35-12.58-31.27V300.7
				c0-11.96,4.61-23.15,12.98-31.51c8.37-8.36,19.57-12.96,31.54-12.96c9.83,0,18.92,2.96,26.61,8.61
				c14.07-6.83,29.36-10.28,45.74-10.28c18.88,0,36.96,4.82,53.74,14.33c16.96,9.61,30.77,23.64,41.07,41.68
				c10.21,17.88,15.38,38.65,15.38,61.74c0,23.09-5.17,43.86-15.38,61.74c-10.29,18.04-24.11,32.06-41.07,41.68
				c-16.78,9.51-34.86,14.34-53.74,14.34c-9.55,0-18.72-1.17-27.49-3.5v33.63c0,12.33-4.48,23.33-12.96,31.82
				C241.73,560.52,230.72,565,218.37,565z M263.22,394.41c2.39,1.77,4.93,3.34,7.64,4.71c4.86,2.46,9.94,3.65,15.52,3.65
				c10.7,0,15.43-3.5,18.35-6.56l0.01-0.01c4.51-4.71,6.8-12.75,6.8-23.9c0-11.15-2.29-19.19-6.81-23.91
				c-2.92-3.05-7.66-6.56-18.35-6.56c-5.57,0-10.65,1.2-15.52,3.66c-2.71,1.37-5.25,2.94-7.64,4.71V394.41z"/>
		</g>
		<g>
			<path class="st0" d="M404.8,565c-12.18,0-23.51-4.8-31.92-13.52l0,0c-8.24-8.54-12.6-19.36-12.6-31.29V300.7
				c0-11.96,4.61-23.15,12.98-31.51c8.37-8.36,19.57-12.96,31.54-12.96c9.83,0,18.92,2.96,26.61,8.61
				c14.07-6.83,29.35-10.28,45.74-10.28c18.88,0,36.97,4.82,53.74,14.33c16.95,9.61,30.77,23.64,41.07,41.68
				c10.21,17.88,15.38,38.65,15.38,61.74c0,23.09-5.17,43.86-15.38,61.74c-10.29,18.04-24.11,32.06-41.07,41.68
				c-16.78,9.51-34.86,14.34-53.74,14.34c-9.54,0-18.72-1.17-27.49-3.5v33.63c0,12.33-4.48,23.33-12.96,31.82
				C428.16,560.52,417.14,565,404.8,565z M449.65,394.41c2.39,1.77,4.93,3.34,7.64,4.71c4.86,2.46,9.94,3.65,15.52,3.65
				c10.7,0,15.43-3.5,18.35-6.56l0,0c4.51-4.71,6.8-12.75,6.8-23.9c0-11.15-2.29-19.19-6.81-23.91c-2.92-3.05-7.66-6.56-18.35-6.56
				c-5.57,0-10.65,1.2-15.52,3.66c-2.71,1.37-5.25,2.94-7.64,4.71V394.41z"/>
		</g>
	</g>
	<g>
		<g>
			<path class="st1" d="M56.68,271.63c-8.33-4-14.95-9.83-19.84-17.49c-4.89-7.66-7.33-16.49-7.33-26.48
				c0-16.43,6.5-29.53,19.5-39.3c13-9.77,32.06-14.66,57.17-14.66h40.34v-2.66c0-14.65-3.62-25.2-10.83-31.64
				c-7.23-6.44-18.5-9.66-33.84-9.66c-8.45,0-15.95,0.67-22.5,2c-6.56,1.33-13.84,3.33-21.84,6c-1.78,0.45-3.22,0.67-4.33,0.67
				c-3.33,0-6.23-1.22-8.67-3.66c-2.45-2.44-3.67-5.44-3.67-8.99c0-6,2.89-10.21,8.67-12.66c18.89-7.99,38.11-11.99,57.68-11.99
				c15.34,0,28.28,3.11,38.84,9.33c10.55,6.22,18.34,14.27,23.34,24.15c5,9.88,7.5,20.6,7.5,32.14v94.26c0,4.22-1.5,7.78-4.5,10.66
				c-3,2.88-6.62,4.33-10.83,4.33c-4.22,0-7.78-1.45-10.67-4.33c-2.89-2.88-4.33-6.44-4.33-10.66v-8.66
				c-16.45,16.88-37.34,25.31-62.68,25.31C74.07,277.63,65.02,275.63,56.68,271.63z M123.53,243.82c9.11-4.77,16.78-10.71,23-17.82
				v-27.98h-36.34c-33.56,0-50.34,8.77-50.34,26.31c0,7.99,2.72,14.44,8.17,19.32c5.44,4.89,14.5,7.33,27.17,7.33
				C104.97,250.98,114.41,248.6,123.53,243.82z"/>
		</g>
		<g>
			<path class="st1" d="M233.71,252.31v8.66c0,4.22-1.5,7.78-4.5,10.66c-3,2.88-6.62,4.33-10.84,4.33c-4.22,0-7.78-1.45-10.67-4.33
				c-2.89-2.88-4.33-6.44-4.33-10.66V44.81c0-4.22,1.44-7.83,4.33-10.82c2.89-3,6.44-4.5,10.67-4.5c4.44,0,8.11,1.45,11,4.33
				c2.89,2.89,4.33,6.55,4.33,10.99v81.6c16.22-16.87,35.22-25.31,57.01-25.31c13.78,0,26.84,3.5,39.17,10.49
				c12.34,6.99,22.34,17.21,30,30.64c7.67,13.44,11.5,29.14,11.5,47.13c0,17.98-3.83,33.7-11.5,47.13
				c-7.67,13.44-17.67,23.65-30,30.64c-12.34,6.99-25.39,10.49-39.17,10.49C268.93,277.63,249.93,269.19,233.71,252.31z
				 M326.05,233.66c10-10.43,15-25.2,15-44.3c0-19.1-5-33.86-15-44.3c-10-10.43-23.23-15.66-39.67-15.66
				c-10.23,0-19.84,2.28-28.84,6.83c-9,4.55-16.95,10.61-23.84,18.15v69.95c6.89,7.55,14.84,13.6,23.84,18.15
				c9,4.55,18.61,6.83,28.84,6.83C302.83,249.32,316.05,244.1,326.05,233.66z"/>
		</g>
		<g>
			<path class="st1" d="M420.47,266.64c-12.89-7.33-22.84-17.7-29.84-31.14c-7-13.43-10.5-28.81-10.5-46.13
				c0-17.32,3.5-32.69,10.5-46.13c7-13.43,16.95-23.81,29.84-31.14c12.89-7.33,27.89-10.99,45.01-10.99
				c16.89,0,31.78,3.66,44.67,10.99c12.89,7.33,22.89,17.71,30,31.14c7.11,13.44,10.67,28.81,10.67,46.13
				c0,17.32-3.56,32.7-10.67,46.13c-7.12,13.44-17.12,23.82-30,31.14c-12.89,7.33-27.78,10.99-44.67,10.99
				C448.36,277.63,433.35,273.96,420.47,266.64z M491.64,243.65c8.33-4.22,15.22-10.88,20.67-19.98c5.44-9.1,8.17-20.65,8.17-34.64
				c0-13.77-2.72-25.2-8.17-34.31c-5.45-9.1-12.34-15.71-20.67-19.82c-8.34-4.11-17.06-6.16-26.17-6.16
				c-9.34,0-18.17,2.06-26.5,6.16c-8.33,4.11-15.17,10.72-20.5,19.82c-5.33,9.11-8,20.54-8,34.31c0,13.99,2.67,25.54,8,34.64
				c5.33,9.11,12.17,15.77,20.5,19.98c8.34,4.22,17.17,6.33,26.5,6.33C474.58,249.98,483.31,247.87,491.64,243.65z"/>
		</g>
		<g>
			<path class="st1" d="M595.05,268.97c-9-5.77-15.89-13.66-20.67-23.65c-4.78-9.99-7.17-20.98-7.17-32.97v-94.59
				c0-4.22,1.5-7.77,4.5-10.66c3-2.88,6.61-4.33,10.84-4.33c4.22,0,7.78,1.45,10.67,4.33c2.89,2.89,4.33,6.44,4.33,10.66v91.26
				c0,27.09,12.22,40.64,36.67,40.64c11.11,0,21.05-2.88,29.84-8.66c8.78-5.77,17.05-13.54,24.84-23.32v-99.92
				c0-4.22,1.5-7.77,4.5-10.66c3-2.88,6.61-4.33,10.83-4.33c4.22,0,7.78,1.45,10.67,4.33c2.89,2.89,4.33,6.44,4.33,10.66v142.89
				c0,4.22-1.45,7.83-4.33,10.82c-2.89,3-6.45,4.5-10.67,4.5c-4.22,0-7.83-1.5-10.83-4.5c-3-3-4.5-6.6-4.5-10.82v-13.66
				c-8.45,9.33-17.56,16.77-27.34,22.32c-9.78,5.55-21.34,8.33-34.67,8.33C614.67,277.63,604.06,274.74,595.05,268.97z"/>
		</g>
		<g>
			<path class="st1" d="M758.47,233.66V130.41H734.8c-1.78,0-3.28-0.61-4.5-1.83c-1.22-1.22-1.83-2.72-1.83-4.5
				c0-2.22,1-4.11,3-5.66l45.34-44.3c2-2,3.89-3,5.67-3c1.78,0,3.28,0.67,4.5,2c1.22,1.33,1.83,2.89,1.83,4.66v26.65h37.67
				c3.78,0,6.89,1.22,9.33,3.66c2.44,2.45,3.67,5.55,3.67,9.33c0,3.56-1.22,6.61-3.67,9.16c-2.45,2.56-5.56,3.83-9.33,3.83h-37.67
				V231c0,8.66,2.05,14.16,6.17,16.49c4.11,2.33,9.28,3.5,15.5,3.5c4.44,0,8.89-0.67,13.34-2c0.89-0.22,1.83-0.44,2.83-0.67
				c1-0.22,2.28-0.33,3.83-0.33c3.11,0,5.89,1.17,8.33,3.5c2.44,2.33,3.67,5.16,3.67,8.49c0,5.11-2.56,8.99-7.67,11.66
				c-8.67,4-17.89,6-27.67,6C774.7,277.63,758.47,262.97,758.47,233.66z"/>
		</g>
		<g>
			<path class="st1" d="M56.68,454.58c-8.33-4-14.95-9.83-19.84-17.49c-4.89-7.66-7.33-16.49-7.33-26.48
				c0-16.43,6.5-29.53,19.5-39.3c13-9.77,32.06-14.66,57.17-14.66h40.34v-2.66c0-14.65-3.62-25.2-10.83-31.64
				c-7.23-6.44-18.5-9.66-33.84-9.66c-8.45,0-15.95,0.67-22.5,2c-6.56,1.33-13.84,3.33-21.84,6c-1.78,0.45-3.22,0.67-4.33,0.67
				c-3.33,0-6.23-1.22-8.67-3.66c-2.45-2.44-3.67-5.44-3.67-8.99c0-6,2.89-10.21,8.67-12.66c18.89-7.99,38.11-11.99,57.68-11.99
				c15.34,0,28.28,3.11,38.84,9.33c10.55,6.22,18.34,14.27,23.34,24.15c5,9.88,7.5,20.6,7.5,32.14v94.26c0,4.22-1.5,7.78-4.5,10.66
				c-3,2.88-6.62,4.33-10.83,4.33c-4.22,0-7.78-1.45-10.67-4.33c-2.89-2.88-4.33-6.44-4.33-10.66v-8.66
				c-16.45,16.88-37.34,25.31-62.68,25.31C74.07,460.57,65.02,458.57,56.68,454.58z M123.53,426.77c9.11-4.77,16.78-10.71,23-17.82
				v-27.98h-36.34c-33.56,0-50.34,8.77-50.34,26.31c0,7.99,2.72,14.44,8.17,19.32c5.44,4.89,14.5,7.33,27.17,7.33
				C104.97,433.93,114.41,431.54,123.53,426.77z"/>
		</g>
		<g>
			<path class="st1" d="M207.7,531.02c-2.89-3-4.33-6.61-4.33-10.82V300.7c0-4.22,1.44-7.77,4.33-10.66
				c2.89-2.88,6.44-4.33,10.67-4.33c4.22,0,7.83,1.45,10.84,4.33c3,2.89,4.5,6.44,4.5,10.66v8.66
				c16.22-16.87,35.22-25.31,57.01-25.31c13.78,0,26.84,3.5,39.17,10.49c12.34,6.99,22.34,17.21,30,30.64
				c7.67,13.44,11.5,29.14,11.5,47.13c0,17.99-3.83,33.7-11.5,47.13c-7.67,13.44-17.67,23.65-30,30.64
				c-12.34,6.99-25.39,10.49-39.17,10.49c-21.78,0-40.79-8.44-57.01-25.31v84.93c0,4.44-1.45,8.1-4.33,10.99
				c-2.89,2.88-6.56,4.33-11,4.33C214.15,535.51,210.59,534.02,207.7,531.02z M326.05,416.61c10-10.43,15-25.2,15-44.3
				c0-19.1-5-33.86-15-44.3c-10-10.43-23.23-15.66-39.67-15.66c-10.23,0-19.84,2.28-28.84,6.83c-9,4.55-16.95,10.61-23.84,18.15
				v69.95c6.89,7.55,14.84,13.6,23.84,18.15c9,4.55,18.61,6.83,28.84,6.83C302.83,432.26,316.05,427.05,326.05,416.61z"/>
		</g>
		<g>
			<path class="st1" d="M394.13,531.02c-2.89-3-4.33-6.61-4.33-10.82V300.7c0-4.22,1.44-7.77,4.33-10.66
				c2.89-2.88,6.44-4.33,10.67-4.33c4.22,0,7.83,1.45,10.84,4.33c3,2.89,4.5,6.44,4.5,10.66v8.66
				c16.22-16.87,35.22-25.31,57.01-25.31c13.78,0,26.84,3.5,39.17,10.49c12.33,6.99,22.34,17.21,30,30.64
				c7.67,13.44,11.5,29.14,11.5,47.13c0,17.99-3.83,33.7-11.5,47.13c-7.67,13.44-17.67,23.65-30,30.64
				c-12.33,6.99-25.39,10.49-39.17,10.49c-21.78,0-40.79-8.44-57.01-25.31v84.93c0,4.44-1.45,8.1-4.33,10.99
				c-2.89,2.88-6.56,4.33-11,4.33C400.57,535.51,397.02,534.02,394.13,531.02z M512.48,416.61c10-10.43,15-25.2,15-44.3
				c0-19.1-5-33.86-15-44.3c-10-10.43-23.23-15.66-39.67-15.66c-10.23,0-19.84,2.28-28.84,6.83c-9,4.55-16.95,10.61-23.84,18.15
				v69.95c6.89,7.55,14.84,13.6,23.84,18.15c9,4.55,18.61,6.83,28.84,6.83C489.25,432.26,502.48,427.05,512.48,416.61z"/>
		</g>
	</g>
</g>
</svg>
